<svg width="20" height="21" viewBox="0 0 20 21" fill="none" xmlns="http://www.w3.org/2000/svg">
<g clip-path="url(#clip0_1402_1547)">
<path opacity="0.3" d="M9.30898 5.26514H7.64232H3.33398V15.2651H16.6673V5.26514H9.30898ZM6.52565 12.7651L4.16732 10.4068L5.34232 9.2318L6.51732 10.4068L9.46732 7.4568L10.6423 8.6318L6.52565 12.7651ZM15.834 11.5901L14.659 12.7651L13.334 11.4401L12.009 12.7651L10.834 11.5901L12.159 10.2651L10.834 8.94014L12.009 7.76514L13.334 9.09014L14.659 7.76514L15.834 8.94014L14.509 10.2651L15.834 11.5901Z" fill="#5685FF"/>
<path d="M6.52435 12.7648L4.16602 10.4065L5.34102 9.23148L6.51602 10.4065L9.46602 7.45648L10.641 8.63148L6.52435 12.7648ZM14.5077 10.2648L15.8327 11.5898L14.6577 12.7648L13.3327 11.4398L12.0077 12.7648L10.8327 11.5898L12.1577 10.2648L10.8327 8.93981L12.0077 7.76481L13.3327 9.08981L14.6577 7.76481L15.8327 8.93981L14.5077 10.2648ZM16.666 3.59814H9.99935H8.33268H3.33268C2.41602 3.59814 1.67435 4.34814 1.67435 5.26481L1.66602 15.2648C1.66602 16.1815 2.41602 16.9315 3.33268 16.9315H16.666C17.5827 16.9315 18.3327 16.1815 18.3327 15.2648V5.26481C18.3327 4.34814 17.5827 3.59814 16.666 3.59814ZM16.666 15.2648H3.33268V5.26481H7.64102H9.30768H16.666V15.2648Z" fill="#255CED"/>
</g>
<defs>
<clipPath id="clip0_1402_1547">
<rect width="20" height="20" fill="white" transform="translate(0 0.265137)"/>
</clipPath>
</defs>
</svg>
